<?xml version="1.0" encoding="UTF-8"?>
<svg xmlns="http://www.w3.org/2000/svg" viewBox="0 0 578.7 578.89"  fill="#fff" >
  <g transform="translate(100, 100)">
  <path d="M179.39,0c6.63,0,13.25,0,19.88,0,.36,.12,.72,.3,1.09,.34,6.73,.74,13.53,1.11,20.19,2.25,39.97,6.84,74.79,24.19,102.95,53.39,48.05,49.83,64.86,109.28,49.93,176.73-10.95,49.49-38.97,88.16-81.49,115.67-43.46,28.12-91.14,36.73-141.71,26.13-50.92-10.67-90.72-38.5-119.5-81.81C14.46,268.21,4.82,241.17,1.4,211.94,.89,207.57,.46,203.19,0,198.82c0-6.31,0-12.62,0-18.94,.13-.69,.3-1.37,.4-2.06,1.23-9.21,1.8-18.55,3.78-27.6C15.49,98.49,43.62,58.2,88,29.44,111.98,13.9,138.37,4.71,166.77,1.38,170.97,.89,175.18,.46,179.39,0ZM106.89,266.01c0-1.2,0-2.2,0-3.21,0-18.78-.08-37.55,.05-56.33,.03-5.19,.37-10.41,1.07-15.55,1.94-14.11,11.11-22.07,24.78-21.87,9.86,.15,16.54,6.29,17.22,16.12,.43,6.21,.74,12.43,.77,18.65,.1,19.72,.04,39.45,.04,59.17v2.96h31.01v-2.22c0-23.27,.06-46.55-.04-69.82-.03-5.82-.28-11.68-1-17.45-1.62-12.84-7.73-22.67-20.03-27.95-16.28-6.98-36.77-5.04-51.81,11.39-.54,.59-.87,1.36-1.3,2.04-.28-.21-.57-.42-.85-.64v-63.8c-1.02,0-1.79,0-2.56,0-8.52,0-17.04,.08-25.56-.05-2.28-.04-2.89,.61-2.89,2.89,.06,54.36,.05,108.71,.05,163.07,0,.84,.07,1.68,.12,2.6h30.95ZM197.07,97.63v168.3h30.78c0-1.09,0-2.02,0-2.96,0-19.09-.09-38.18,.06-57.26,.04-5.26,.49-10.56,1.29-15.75,2.08-13.52,11.41-21.23,24.85-20.91,9.09,.21,15.56,5.59,16.71,14.5,.72,5.61,.94,11.31,.97,16.97,.11,20.82,.04,41.65,.04,62.47v2.93h31.07v-3.19c0-21.06,.07-42.12-.04-63.18-.04-7.16-.27-14.34-.84-21.48-.73-8.96-3.72-17.14-10.54-23.35-13.85-12.61-37.71-13.4-53.5-1.81-3.46,2.54-6.54,5.6-10.07,8.67v-63.95h-30.78Z"/>
  </g>
</svg>
